<svg width="15" height="17" viewBox="0 0 15 17" fill="none" xmlns="http://www.w3.org/2000/svg">
<path d="M2.92188 7.04248C2.92188 7.60498 2.45312 8.04248 1.92188 8.04248C1.35938 8.04248 0.921875 7.60498 0.921875 7.04248V5.04248C0.921875 4.51123 1.35938 4.04248 1.92188 4.04248C2.45312 4.04248 2.92188 4.51123 2.92188 5.04248V7.04248ZM11.8906 2.04248V8.04248H3.92188L3.89062 2.04248C3.89062 0.94873 4.79688 0.0424805 5.89062 0.0424805H9.89062C10.9844 0.0424805 11.8906 0.94873 11.8906 2.04248ZM13.9219 4.04248C14.4531 4.04248 14.9219 4.51123 14.9219 5.04248V7.04248C14.9219 7.60498 14.4531 8.04248 13.9219 8.04248C13.3594 8.04248 12.8906 7.60498 12.8906 7.04248L12.9219 5.04248C12.9219 4.51123 13.3594 4.04248 13.9219 4.04248ZM13.5156 9.72998L13.8594 10.73C14.0781 11.3862 13.5781 12.0425 12.9219 12.0425H8.92188V14.1675C9.79688 14.355 10.5156 14.7612 10.8281 15.3237C11.0469 15.6362 10.7656 16.0425 10.3594 16.0425H5.45312C5.04688 16.0425 4.76562 15.6362 4.98438 15.3237C5.32812 14.7612 6.01562 14.355 6.92188 14.1675V12.0425H2.89062C2.23438 12.0425 1.73438 11.3862 1.95312 10.73L2.29688 9.72998C2.42188 9.32373 2.79688 9.04248 3.23438 9.04248H12.5781C13.0156 9.04248 13.3906 9.32373 13.5156 9.72998Z" fill="#CB3A1A"/>
</svg>
