<svg width="133" height="111" viewBox="0 0 133 111" fill="none" xmlns="http://www.w3.org/2000/svg">
<path d="M8.73202 64.07C6.98885 38.1233 23.6775 11.9201 49.1106 4.39276C73.8007 -2.93502 101.491 8.66972 114.837 30.3679C115.58 31.594 118.18 30.3679 117.323 29.0563C110.287 17.7974 99.8015 9.10136 87.4215 4.25798C75.0415 -0.585404 61.4265 -1.31805 48.5963 2.16877C22.163 10.0098 4.18838 37.0114 5.9887 64.2126C5.9887 65.8093 8.84635 65.5241 8.84635 64.07H8.73202Z" fill="#E2D6D6"/>
<path d="M6.27437 66.3225C47.3475 65.6618 87.4616 53.8319 122.295 32.1072C122.447 32.0217 122.58 31.9064 122.685 31.7682C122.791 31.63 122.868 31.4718 122.91 31.3032C122.953 31.1346 122.96 30.9592 122.933 30.7875C122.906 30.6158 122.843 30.4515 122.75 30.3045C122.657 30.1575 122.535 30.0309 122.392 29.9324C122.248 29.8339 122.086 29.7655 121.915 29.7314C121.744 29.6973 121.568 29.6983 121.398 29.7342C121.227 29.7701 121.066 29.8401 120.923 29.9402C86.5607 51.4603 46.9537 63.1937 6.3887 63.8704C4.61696 63.8704 4.41692 66.4651 6.3887 66.4366L6.27437 66.3225Z" fill="#E2D6D6"/>
<path d="M14.7616 98.5419C33.1055 96.9039 51.2722 93.6794 69.0569 88.9046C86.7458 84.086 102.977 76.6156 120.037 70.2003C121.176 69.6665 122.375 69.2739 123.61 69.0312L129.325 77.0148C129.125 80.0942 121.409 82.0045 118.98 82.7173C114.551 84.1145 110.007 85.2835 105.549 86.5951L46.3672 103.703C42.195 104.9 37.9943 106.383 33.7364 107.267C26.9638 108.664 13.3614 107.723 16.4191 96.8312C16.9335 95.0919 14.1615 94.3791 13.5614 96.1184C11.5039 103.446 17.2192 109.576 24.3347 110.717C34.8223 112.399 47.8818 106.155 57.7407 103.304L100.777 90.929C107.035 89.1042 113.351 87.3934 119.58 85.4831C123.683 84.7023 127.479 82.774 130.525 79.923C134.526 75.3325 133.84 67.6911 127.267 66.2084C123.657 65.8923 120.037 66.6885 116.894 68.4895C109.807 71.5118 102.806 74.7053 95.5759 77.414C69.5826 87.1152 42.4018 93.2911 14.7616 95.7762C12.9613 95.9188 12.8756 98.6275 14.7616 98.6275V98.5419Z" fill="#E2D6D6"/>
<path d="M0.359132 68.0047C-2.87001 82.7744 16.562 88.1348 23.2203 75.5036L20.6199 75.9313C22.368 78.2308 24.7429 79.9793 27.4606 80.9678C30.1783 81.9562 33.1238 82.1428 35.945 81.5052C38.7662 80.8677 41.3436 79.4329 43.3692 77.3725C45.3948 75.3121 46.7829 72.7132 47.3674 69.8866L44.7669 70.2858C45.9674 72.6882 48.0086 74.5684 50.5044 75.5709C53.0002 76.5733 55.7776 76.6285 58.3115 75.7261C60.8453 74.8237 62.9599 73.0262 64.2554 70.6735C65.5509 68.3207 65.9375 65.5759 65.342 62.958L62.4844 63.6708C63.2414 66.5166 65.0419 68.975 67.5293 70.5591C70.0167 72.1433 73.0096 72.7377 75.9154 72.2247C83.2881 70.9416 87.0888 63.6709 86.803 56.6567L83.9454 56.7992C83.9244 58.7594 84.3412 60.6996 85.1655 62.4789C85.9898 64.2583 87.2008 65.8321 88.7108 67.0861C90.2207 68.3402 91.9916 69.2431 93.8949 69.7291C95.7982 70.2151 97.786 70.2722 99.7141 69.8961C101.642 69.52 103.462 68.7202 105.042 67.5547C106.622 66.3893 107.921 64.8874 108.847 63.1582C109.772 61.4291 110.3 59.5161 110.392 57.558C110.484 55.5999 110.138 53.646 109.378 51.8381C108.921 50.612 106.521 50.9257 106.521 52.2943C106.521 61.0477 116.865 65.0109 123.667 59.9357C133.611 52.3228 128.153 39.1499 121.723 31.4229C120.809 30.2824 118.209 31.4228 119.237 32.7059C123.107 36.6892 125.566 41.8259 126.239 47.333C126.47 49.2035 126.242 51.102 125.575 52.8652C124.908 54.6284 123.822 56.2036 122.409 57.4551C117.408 61.6179 109.378 59.4224 109.464 52.1517L106.606 52.5793C108.064 56.7422 107.407 62.9865 103.234 65.6667C101.61 66.6637 99.7499 67.2139 97.8433 67.2611C95.9367 67.3084 94.0516 66.8511 92.3795 65.9358C90.7074 65.0205 89.3079 63.6798 88.3234 62.05C87.3389 60.4202 86.8045 58.5594 86.7744 56.6567C86.7744 55.0885 83.9168 55.3166 83.9168 56.7992C84.1552 58.8799 83.8876 60.9873 83.1364 62.9429C82.3853 64.8984 81.1728 66.6446 79.6017 68.0333C78.4105 68.9831 76.9977 69.6165 75.4949 69.8744C73.9921 70.1323 72.4483 70.0063 71.0075 69.5081C69.5666 69.0099 68.2757 68.1558 67.255 67.0254C66.2344 65.895 65.5173 64.5252 65.1706 63.0435C64.7705 61.5609 62.1415 62.2737 62.3129 63.7564C63.256 69.1738 61.3127 71.1982 56.1118 72.4527C51.4253 73.5932 49.3964 73.4222 46.9674 69.0597C46.7939 68.8662 46.5743 68.7197 46.3288 68.6336C46.0834 68.5475 45.8201 68.5248 45.5635 68.5675C45.3069 68.6101 45.0651 68.7168 44.8609 68.8777C44.6567 69.0385 44.4967 69.2483 44.3955 69.4875C43.9977 71.8096 42.927 73.9647 41.3156 75.6866C39.7042 77.4085 37.6226 78.6219 35.3279 79.1768C33.0332 79.7318 30.6259 79.604 28.4031 78.8094C26.1804 78.0147 24.2395 76.588 22.8202 74.7053C22.6452 74.5177 22.4269 74.3757 22.1842 74.2919C21.9415 74.208 21.682 74.1848 21.4282 74.2242C21.1744 74.2635 20.9342 74.3644 20.7285 74.5178C20.5228 74.6713 20.3579 74.8727 20.2483 75.1045C14.2187 86.5096 0.587698 78.526 2.90239 67.9763C3.24531 66.4651 0.387663 66.6647 0.0447448 67.9763L0.359132 68.0047Z" fill="#E2D6D6"/>
<path d="M15.2475 94.6642C13.8186 83.5442 29.3356 89.3038 33.6221 89.8455C36.4426 90.3601 39.3523 90.043 41.995 88.9331C43.5789 88.1099 44.9941 86.9977 46.1672 85.6541C47.1674 84.5992 47.9104 83.2306 49.0249 82.2327C52.1061 79.5321 56.1335 78.1583 60.2268 78.4119C62.8992 78.7597 65.6023 78.8076 68.2854 78.5545C73.4535 77.3188 78.5561 75.8247 83.5739 74.078C93.7374 71.2106 104.101 69.1043 114.579 67.7767C116.237 67.5771 116.608 65.2105 114.751 65.4386C103.145 66.894 91.6766 69.2874 80.459 72.5953C77.0584 73.5933 73.715 74.9333 70.2858 75.7602C66.552 76.4167 62.7319 76.4167 58.9981 75.7602C56.0977 75.1727 53.082 75.7133 50.568 77.2714C46.7959 79.8375 45.1956 83.6297 41.0234 85.8252C34.708 89.3038 29.7357 85.5116 23.106 85.4545C17.1621 85.4545 11.6754 88.9901 12.5613 95.377C12.7613 96.8597 15.4189 96.1468 15.4189 94.6356L15.2475 94.6642Z" fill="#E2D6D6"/>
<path d="M19.8197 51.2393C21.589 44.804 24.739 38.8293 29.0515 33.7288C33.364 28.6284 38.736 24.5241 44.7955 21.7001C46.4815 20.9017 44.9955 18.8488 43.4524 19.5902C37.0748 22.5721 31.42 26.8965 26.8768 32.2664C22.3335 37.6362 19.0096 43.924 17.1335 50.6975C16.6477 52.3798 19.391 52.7504 19.8197 51.2393Z" fill="#E2D6D6"/>
<path d="M55.6546 13.9731L66.0851 15.1991C67.7139 15.3987 68.7426 12.9466 66.9137 12.7185L56.4833 11.4924C54.8545 11.2928 53.8257 13.745 55.6546 13.9731Z" fill="#E2D6D6"/>
</svg>
