<svg width="113" height="120" viewBox="0 0 113 120" fill="none" xmlns="http://www.w3.org/2000/svg">
<path d="M1.48445 42.5842C13.5177 61.5323 31.4526 79.117 54.7527 82.0427C57.8951 82.4256 66.2035 84.1872 68.7481 81.6444C70.3576 80.0361 71.4 77.0491 72.5037 75.0118C74.3738 71.5705 76.2184 68.1138 78.0375 64.6418C84.9968 51.4481 91.5423 38.0655 97.6739 24.494C100.173 18.949 102.763 13.3886 104.955 7.6445C106.09 4.71881 104.02 2.29861 101.751 0.843421C98.0418 -1.53083 92.2014 1.73184 88.7984 2.98789C82.3449 5.36214 75.9067 7.75168 69.4532 10.0953C55.6571 15.1399 41.861 20.1948 28.0649 25.2599C18.469 28.7983 4.97946 31.387 0.242805 41.6652C-0.722921 43.7943 2.38885 45.6631 3.41589 43.5186C7.72334 34.5118 20.5384 32.1682 29.092 29.0127C39.8223 25.0709 50.5526 21.1088 61.2828 17.1262C71.5022 13.3376 81.7215 9.56942 91.9408 5.82168C93.0445 5.42342 102.027 1.67058 101.138 6.58757C100.617 9.65112 98.2564 13.1129 96.9841 15.8854C94.6847 20.8637 92.3087 25.796 89.9327 30.7436C85.1654 40.6235 80.2908 50.4575 75.2322 60.1996C72.703 65.0707 70.097 69.8957 67.4758 74.7208C66.1115 77.2176 65.9429 77.9222 63.015 78.1061C59.7499 78.2523 56.4783 78.0675 53.2505 77.5546C31.7899 74.491 15.3879 58.239 3.38525 41.3895C2.57282 40.2559 0.718 41.2822 1.48445 42.5076V42.5842Z" fill="#E2D6D6"/>
<path d="M1.8217 41.6652C2.52684 42.0634 1.8217 55.589 1.8217 57.228C2.09763 62.7577 2.78744 68.2567 3.59987 73.7252C4.84152 82.1193 6.00652 93.6382 11.4483 100.562C17.35 108.083 28.3102 111.284 37.0017 114.195C48.0777 117.745 59.6034 119.7 71.2314 120C71.7871 119.996 72.319 119.774 72.7119 119.381C73.1049 118.988 73.3274 118.457 73.3315 117.901C73.9513 105.172 72.2529 92.4352 68.3189 80.3118C68.1868 79.8365 67.8711 79.4331 67.4413 79.1903C67.0115 78.9476 66.5029 78.8854 66.0272 79.0175C65.5515 79.1495 65.1478 79.4649 64.9049 79.8944C64.662 80.3238 64.5998 80.8321 64.7319 81.3074C68.1845 93.1841 69.6655 105.546 69.116 117.901L71.2314 115.788C60.754 115.445 50.3568 113.835 40.2668 110.993C30.5789 108.267 17.5493 104.636 12.5827 95.1394C7.98397 86.2091 6.74232 73.9549 5.42403 64.1362C4.71889 58.775 4.32032 53.4139 4.09039 47.9914C3.95243 45.0198 4.64224 42.2013 2.37355 40.0568C2.20966 39.8873 1.99309 39.7783 1.75921 39.7477C1.52532 39.7171 1.28796 39.7667 1.08592 39.8883L0.472746 40.3478C0.293255 40.4628 0.154021 40.6308 0.0743639 40.8284C-0.00529276 41.026 -0.0214127 41.2435 0.0282151 41.4507L0.227499 42.2319C0.272973 42.3844 0.365787 42.5186 0.492534 42.6149C0.619281 42.7113 0.773387 42.7649 0.93262 42.768H1.46914C1.59315 42.7633 1.7124 42.7191 1.80952 42.6419C1.90664 42.5647 1.97655 42.4585 2.00906 42.3389C2.04157 42.2192 2.03499 42.0923 1.99025 41.9766C1.94552 41.8609 1.865 41.7625 1.7604 41.6958L1.8217 41.6652Z" fill="#E2D6D6"/>
<path d="M102.472 6.64881C102.648 5.62803 102.941 4.63096 103.346 3.67721H101.46C103.085 14.323 105.277 24.9076 107.285 35.4921C108.466 41.7111 109.6 47.6084 108.297 53.8734C107.086 59.6175 103.989 64.9941 101.46 70.248C93.9796 85.7649 87.2655 107.685 69.7751 114.501C67.4605 115.405 68.2422 119.096 70.8328 118.315C89.9021 112.908 97.4746 88.1851 105.078 72.3619C109.585 63.0181 114.49 53.8581 112.574 43.151C110.198 29.748 106.902 16.2531 103.376 3.09513C103.305 2.83919 103.135 2.62197 102.904 2.49126C102.672 2.36056 102.398 2.32705 102.142 2.39814C101.886 2.46924 101.669 2.63913 101.538 2.87037C101.407 3.10162 101.374 3.37527 101.445 3.63121C101.583 4.59623 101.736 5.56125 101.874 6.51095C101.874 6.86326 102.426 6.97048 102.503 6.60285L102.472 6.64881Z" fill="#E2D6D6"/>
<path d="M96.3863 36.6104C92.4774 41.2057 89.105 47.3327 92.4774 53.2454C95.2059 58.0398 101.2 56.9063 104.051 53.2454C107.776 48.3743 109.983 41.6805 105.814 36.4725C102.748 32.6737 95.8498 34.282 95.3592 39.1837C95.2519 40.2253 96.8921 40.5929 97.306 39.7045C99.5134 35.4002 103.943 37.4987 104.97 41.3129C105.998 45.127 103.438 48.8952 101.537 51.8208C98.2258 57.0289 93.4584 51.8208 93.3665 47.7004C93.2592 44.0088 95.9111 40.7461 97.7659 37.7745C98.3024 36.9014 96.9994 35.8598 96.3249 36.6716L96.3863 36.6104Z" fill="#E2D6D6"/>
<path d="M90.4386 63.9984C87.7254 64.1669 87.0509 67.6746 88.0013 69.7425C89.3043 72.5304 92.692 72.8061 95.1446 71.4275C95.8236 71.0453 96.4177 70.5292 96.8908 69.9105C97.364 69.2918 97.7063 68.5834 97.897 67.8283C98.0877 67.0733 98.1228 66.2874 98.0001 65.5184C97.8774 64.7494 97.5995 64.0134 97.1834 63.3551C95.6505 61.2106 91.5117 60.7817 90.5919 63.6767C90.5467 63.8519 90.5542 64.0365 90.6135 64.2074C90.6729 64.3783 90.7813 64.5279 90.9254 64.6375C91.0694 64.747 91.2426 64.8117 91.4232 64.8234C91.6038 64.835 91.7839 64.7932 91.9408 64.703C93.1825 64.0137 94.5774 63.9218 95.3439 65.3004C96.1103 66.679 94.8687 68.7009 93.5657 69.4209C93.2838 69.601 92.9678 69.7216 92.6375 69.7752C92.3071 69.8288 91.9693 69.8142 91.6447 69.7324C91.3202 69.6507 91.0158 69.5034 90.7504 69.2996C90.485 69.0959 90.2641 68.84 90.1014 68.5478C89.9206 68.0131 89.9185 67.4342 90.0954 66.8983C90.2723 66.3623 90.6187 65.8983 91.0824 65.5761C91.1928 65.4446 91.2647 65.2852 91.2904 65.1155C91.316 64.9458 91.2944 64.7723 91.2279 64.6141C91.1614 64.4558 91.0526 64.319 90.9133 64.2185C90.7741 64.118 90.6098 64.0577 90.4386 64.0443V63.9984Z" fill="#E2D6D6"/>
<path d="M78.2367 74.9506C73.638 75.8084 71.9365 84.5701 73.638 88.1392C74.2102 89.345 75.0421 90.4094 76.0742 91.2564C77.1063 92.1033 78.3129 92.7118 79.6078 93.0383C80.9028 93.3647 82.2539 93.401 83.5645 93.1446C84.8751 92.8881 86.1128 92.3454 87.1889 91.555C92.0635 88.2771 92.2628 81.8589 89.7641 77.0798C87.7254 73.1738 80.7354 69.5281 77.5009 74.0162C76.9797 74.7515 77.8382 75.6859 78.62 75.4714C80.1844 74.8597 81.9172 74.8328 83.4999 75.3956C85.0826 75.9584 86.4089 77.0732 87.2349 78.535C88.2469 80.106 88.6991 81.9721 88.5183 83.8317C88.3375 85.6913 87.5343 87.4356 86.2385 88.7825C85.5528 89.4815 84.7185 90.0173 83.7975 90.3504C82.8764 90.6835 81.8922 90.8053 80.9177 90.7067C79.9432 90.6081 79.0033 90.2918 78.1678 89.781C77.3322 89.2703 76.6223 88.5783 76.0907 87.7562C73.9599 84.6927 75.9527 78.3511 78.7732 76.3139C78.9409 76.2269 79.0697 76.08 79.1338 75.9024C79.198 75.7248 79.1928 75.5297 79.1193 75.3557C79.0458 75.1818 78.9094 75.0419 78.7373 74.964C78.5652 74.8861 78.3701 74.8758 78.1908 74.9353L78.2367 74.9506Z" fill="#E2D6D6"/>
<path d="M55.7798 42.6302C48.008 44.5449 43.8231 55.3439 45.9079 62.6351C48.0846 70.294 58.7689 68.3793 63.199 64.6111C69.6985 59.0814 77.363 49.4159 71.354 40.9452C65.9735 33.2864 54.3695 39.2449 50.1387 44.7593C49.4642 45.6478 50.7519 46.7506 51.6716 46.2911C56.2703 43.4573 59.8573 39.7351 65.8049 41.0065C71.7526 42.2779 70.9555 49.2015 69.1007 53.1228C67.872 55.3527 66.3569 57.4125 64.5939 59.2499C60.8843 63.6002 54.86 67.6747 49.4642 63.3397C46.4904 60.9502 48.4372 55.3132 49.173 52.3263C49.5507 50.4806 50.4085 48.767 51.6598 47.3579C52.9111 45.9488 54.5119 44.8941 56.3009 44.2998C56.4967 44.2177 56.6558 44.0672 56.7485 43.8764C56.8413 43.6856 56.8614 43.4676 56.8051 43.2631C56.7488 43.0586 56.6199 42.8816 56.4424 42.7651C56.265 42.6486 56.0513 42.6007 55.8411 42.6302H55.7798Z" fill="#E2D6D6"/>
<path d="M75.4009 27.7873C74.2247 28.9962 73.3617 30.4737 72.8869 32.0916C72.565 33.1179 71.9365 35.7219 72.8869 36.595C75.0943 38.8161 79.0185 38.0502 81.2106 36.3193C83.7398 34.3127 83.7552 30.2688 82.161 27.7414C80.5668 25.2139 76.8111 24.3102 75.079 27.1593C74.9629 27.358 74.916 27.5896 74.9456 27.8177C74.9751 28.0459 75.0795 28.2579 75.2423 28.4206C75.4051 28.5833 75.6172 28.6876 75.8456 28.7171C76.074 28.7466 76.3057 28.6998 76.5046 28.5838C79.0952 27.052 80.9346 30.0237 80.5974 32.4133C80.4539 33.0881 80.1461 33.7172 79.7013 34.2448C79.2565 34.7724 78.6884 35.1824 78.0473 35.4383C77.4062 35.6943 76.7118 35.7884 76.0256 35.7123C75.3394 35.6361 74.6826 35.3922 74.1133 35.002L74.6191 35.8904C74.333 33.3214 75.0771 30.7437 76.6885 28.7217C77.2404 28.0017 76.0753 27.1899 75.4622 27.7873H75.4009Z" fill="#E2D6D6"/>
<path d="M26.5167 43.7637C24.478 45.9082 22.8071 49.661 24.1101 52.5867C25.413 55.5124 29 56.2476 31.7745 54.7771C35.055 53.0769 35.1316 48.7266 33.66 45.8163C32.4797 43.488 27.2985 40.5929 25.7656 44.1007C25.6752 44.2694 25.6354 44.4605 25.6509 44.6513C25.6664 44.842 25.7365 45.0242 25.853 45.1761C25.9694 45.328 26.1272 45.4432 26.3074 45.5078C26.4877 45.5725 26.6827 45.5838 26.8693 45.5406C28.8467 45.1729 30.2263 45.2648 31.468 47.0723C31.7836 47.534 32.0023 48.0547 32.1108 48.6032C32.2194 49.1517 32.2155 49.7164 32.0994 50.2633C31.9834 50.8103 31.7575 51.328 31.4356 51.7853C31.1137 52.2425 30.7023 52.6298 30.2263 52.9237C29.7582 53.1762 29.2323 53.3027 28.7004 53.2906C28.1685 53.2785 27.6489 53.1283 27.1927 52.8548C26.7365 52.5813 26.3594 52.1938 26.0984 51.7306C25.8374 51.2673 25.7016 50.7441 25.7043 50.2124C25.8268 48.2271 26.5906 46.3352 27.881 44.8206C28.4328 44.0088 27.1912 43.0744 26.532 43.779L26.5167 43.7637Z" fill="#E2D6D6"/>
<path d="M49.9701 28.8902C45.3714 26.3322 40.7727 32.6431 40.926 36.7329C40.927 36.9392 40.9829 37.1416 41.088 37.3192C41.193 37.4969 41.3434 37.6434 41.5238 37.7439C44.7081 39.4333 48.358 40.0358 51.9169 39.4594C54.9827 38.8927 59.7806 37.3456 61.2522 34.282C61.9227 33.1338 62.1465 31.779 61.8807 30.4764C61.6149 29.1739 60.8782 28.0148 59.8113 27.2206C56.4696 24.6778 52.0702 25.3518 48.6978 27.5116C47.962 27.9712 48.1613 29.3957 49.173 29.2884C51.9935 28.9668 54.8907 27.7567 57.6192 29.074C62.2179 31.387 57.3587 34.4352 55.9944 35.293C54.834 35.9496 53.5844 36.4346 52.2848 36.7329C49.6827 37.3395 46.9647 37.2284 44.421 36.4112C41.8917 35.6913 43.9304 33.1026 44.9268 31.9078C46.2451 30.376 48.1459 30.2229 49.8781 29.5182C49.9414 29.4984 49.9978 29.4611 50.0409 29.4107C50.0839 29.3602 50.1119 29.2987 50.1215 29.2331C50.1311 29.1675 50.122 29.1005 50.0952 29.0399C50.0684 28.9792 50.025 28.9273 49.9701 28.8902Z" fill="#E2D6D6"/>
<path d="M80.3215 15.9314C77.8688 15.671 76.9951 18.9949 77.2557 20.8024C77.6849 23.5902 81.1032 24.6012 83.4639 24.0804C84.8477 23.6442 86.039 22.7452 86.8374 21.5345C87.6358 20.3238 87.9927 18.8752 87.848 17.4325C87.7552 16.8185 87.4554 16.2547 86.9983 15.8341C86.5411 15.4135 85.954 15.1614 85.334 15.1195C83.361 14.8563 81.3586 14.908 79.4017 15.2727C78.482 15.4412 78.574 16.8045 79.4017 17.0342C81.0754 17.4277 82.787 17.6383 84.5063 17.6623C86.7137 17.7542 84.307 21.2313 83.4486 21.7981C82.7496 22.1931 81.9272 22.31 81.1457 22.1254C80.3642 21.9408 79.6812 21.4683 79.2331 20.8024C78.1754 19.2706 79.693 17.8614 80.674 16.8504C80.7437 16.7729 80.7899 16.6772 80.8074 16.5745C80.8249 16.4718 80.8128 16.3662 80.7727 16.27C80.7326 16.1738 80.6661 16.091 80.5808 16.0311C80.4955 15.9711 80.395 15.9366 80.2908 15.9314H80.3215Z" fill="#E2D6D6"/>
<path d="M52.7293 51.7902C52.2216 53.0616 51.8416 54.3803 51.5949 55.7268C51.1079 57.2589 50.7993 58.842 50.6752 60.4447C50.6796 60.5799 50.7275 60.7101 50.8118 60.8159C50.8962 60.9217 51.0125 60.9974 51.1434 61.0318C51.2743 61.0663 51.4129 61.0575 51.5384 61.0069C51.664 60.9563 51.7698 60.8666 51.8402 60.751C52.3589 59.4793 52.7343 58.1538 52.9592 56.7991C53.3958 55.2575 53.6833 53.6776 53.8176 52.0812C53.8182 51.9526 53.7761 51.8275 53.698 51.7253C53.6198 51.6232 53.51 51.5497 53.3857 51.5165C53.2614 51.4833 53.1296 51.492 53.0108 51.5416C52.8921 51.5911 52.7931 51.6785 52.7293 51.7902Z" fill="#E2D6D6"/>
<path d="M58.7076 46.4443C56.7491 50.4625 55.3908 54.746 54.6761 59.158C54.6761 59.8779 55.6725 59.9239 55.8871 59.3112C57.3433 55.2213 58.1251 50.9477 59.7193 46.8732C59.9492 46.2911 58.9375 45.8622 58.7076 46.4443Z" fill="#E2D6D6"/>
<path d="M64.0268 42.814C62.2326 46.864 60.6966 51.0235 59.4281 55.2673C59.2901 55.8647 60.1639 56.2783 60.4398 55.6962C62.2242 51.588 63.7348 47.3664 64.9618 43.0591C65.1611 42.4923 64.2873 42.2779 64.0727 42.814H64.0268Z" fill="#E2D6D6"/>
<path d="M66.2035 46.046C65.0989 47.9018 64.3552 49.9495 64.0114 52.0812C63.9348 52.602 64.7166 52.6326 64.8699 52.1884C65.448 50.2488 66.181 48.3586 67.0619 46.5362C67.3685 45.9847 66.5101 45.4792 66.2035 46.046Z" fill="#E2D6D6"/>
<path d="M78.5893 78.5196C77.6403 80.6867 76.8163 82.9063 76.1213 85.1675C75.9987 85.6577 76.7192 86.01 76.9644 85.5351C77.9346 83.326 78.784 81.0659 79.509 78.7647C79.7236 78.1827 78.8039 77.9529 78.5893 78.5196Z" fill="#E2D6D6"/>
<path d="M81.7931 76.5896C79.8546 80.8689 78.2255 85.2814 76.9185 89.7935C76.7958 90.3143 77.5316 90.6666 77.7922 90.1611C79.6743 85.8217 81.2419 81.3527 82.4829 76.7887C82.6362 76.3292 81.9617 76.1607 81.7931 76.5896Z" fill="#E2D6D6"/>
<path d="M83.9238 78.5197C82.7588 81.813 81.0113 84.8459 79.8156 88.1086C79.5857 88.7213 80.4901 89.0123 80.812 88.5375C82.6327 85.4991 84.0157 82.2195 84.9202 78.7954C85.1195 78.152 84.1384 77.8916 83.9238 78.5197Z" fill="#E2D6D6"/>
<path d="M85.7173 82.1959C85.0689 83.3105 84.4953 84.467 84.0004 85.6577C83.7858 86.2398 84.6596 86.5308 84.9662 86.056C85.6159 84.9977 86.1945 83.8975 86.6983 82.7626C87.0049 82.1193 86.0698 81.5525 85.7173 82.1959Z" fill="#E2D6D6"/>
<path d="M96.7235 43.7024C96.1768 46.0686 95.7522 48.4614 95.4512 50.8711C95.4512 51.3153 96.095 51.3919 96.2176 50.9783C96.7605 48.643 97.1801 46.2809 97.4746 43.9015C97.5666 43.4114 96.8155 43.1969 96.7235 43.7024Z" fill="#E2D6D6"/>
<path d="M100.663 38.234C99.8659 42.0481 98.5323 45.6631 97.5972 49.4313C97.4439 50.0746 98.4097 50.5495 98.7316 49.8908C100.283 46.265 101.315 42.4388 101.797 38.5251C101.905 37.8358 100.862 37.5294 100.724 38.234H100.663Z" fill="#E2D6D6"/>
<path d="M103.254 41.2822C103.039 43.2735 102.319 45.0504 101.935 46.9804C101.9 47.0858 101.906 47.2005 101.951 47.3019C101.997 47.4033 102.078 47.484 102.18 47.5282C102.282 47.5725 102.397 47.5769 102.502 47.5407C102.607 47.5045 102.695 47.4303 102.748 47.3328C103.655 45.4474 104.102 43.3737 104.051 41.2822C104.051 40.7614 103.315 40.7921 103.254 41.2822Z" fill="#E2D6D6"/>
<path d="M46.613 31.0347C45.2886 32.8196 44.5015 34.9453 44.3443 37.1618C44.3546 37.2767 44.404 37.3847 44.4843 37.4678C44.5645 37.5508 44.6708 37.6039 44.7854 37.6182C44.9001 37.6326 45.0161 37.6072 45.1144 37.5465C45.2126 37.4857 45.2871 37.3932 45.3254 37.2843C45.6626 36.4725 45.8006 35.5687 46.0612 34.7263C46.4114 33.6372 46.8683 32.5854 47.4255 31.5861C47.469 31.4802 47.4728 31.3621 47.4362 31.2536C47.3995 31.1451 47.3248 31.0535 47.2259 30.9957C47.1269 30.9379 47.0104 30.9177 46.8978 30.9389C46.7852 30.9602 46.6841 31.0214 46.613 31.1112V31.0347Z" fill="#E2D6D6"/>
<path d="M52.1008 28.8902C49.8531 31.2124 48.0871 33.9558 46.9043 36.9626C46.705 37.5447 47.5328 37.8357 47.8393 37.3609C49.3391 34.6775 51.0029 32.089 52.8213 29.6101C53.2351 29.1046 52.53 28.3847 52.1008 28.8902Z" fill="#E2D6D6"/>
<path d="M55.6418 28.4919C54.7067 29.748 53.8176 31.0194 52.9592 32.3367C51.9577 33.6049 51.1801 35.0347 50.6599 36.5644C50.6255 36.6799 50.6311 36.8038 50.6758 36.9158C50.7205 37.0278 50.8017 37.1215 50.9063 37.1817C51.0108 37.2419 51.1326 37.2651 51.252 37.2476C51.3714 37.2301 51.4814 37.1729 51.5643 37.0852C52.4651 35.993 53.2366 34.8005 53.8636 33.5315C54.768 31.9997 55.7338 30.5752 56.7455 29.1353C57.236 28.446 56.117 27.8333 55.6418 28.4919Z" fill="#E2D6D6"/>
<path d="M58.1864 29.3497C57.377 30.877 56.7 32.4707 56.163 34.1135C56.1435 34.2329 56.1651 34.3553 56.224 34.4609C56.283 34.5665 56.376 34.6491 56.4879 34.6952C56.5997 34.7413 56.7239 34.7483 56.8402 34.715C56.9566 34.6817 57.0582 34.6101 57.1287 34.5118C57.9506 32.9971 58.6379 31.4133 59.1828 29.7786C59.4127 29.2118 58.447 28.7982 58.1864 29.3497Z" fill="#E2D6D6"/>
<path d="M29.6745 45.2801C28.042 48.1 26.6719 51.0636 25.5816 54.1338C25.5663 54.2069 25.5769 54.283 25.6116 54.3492C25.6463 54.4153 25.7029 54.4674 25.7718 54.4963C25.8406 54.5253 25.9175 54.5295 25.9891 54.508C26.0607 54.4866 26.1226 54.4409 26.1642 54.3789C27.7708 51.5725 29.1152 48.6241 30.1803 45.5712C30.3336 45.2342 29.8431 44.9278 29.6745 45.2801Z" fill="#E2D6D6"/>
<path d="M30.3643 48.5122C28.9339 50.2741 28.0117 52.3925 27.697 54.6393C27.697 55.2367 28.5095 55.2673 28.6934 54.7618C29.3291 52.7864 30.1988 50.894 31.284 49.1249C31.6826 48.5428 30.7628 48.0374 30.3643 48.5735V48.5122Z" fill="#E2D6D6"/>
<path d="M75.7994 29.2272C75.4123 31.4144 74.9005 33.5777 74.2665 35.7065C74.1439 36.2273 74.895 36.595 75.1556 36.0742C76.1148 33.9203 76.5959 31.5845 76.5659 29.2272C76.5659 28.6911 75.7994 28.7217 75.7381 29.2272H75.7994Z" fill="#E2D6D6"/>
<path d="M77.9608 28.3081C77.1774 30.6464 76.6079 33.051 76.2593 35.4921C76.2593 36.0589 76.9797 36.0589 77.1637 35.6146C77.8904 33.3076 78.4035 30.9387 78.6966 28.5379C78.7061 28.438 78.6802 28.3379 78.6235 28.2551C78.5668 28.1723 78.4828 28.112 78.3862 28.0847C78.2896 28.0574 78.1864 28.0648 78.0947 28.1056C78.003 28.1464 77.9285 28.2181 77.8842 28.3081H77.9608Z" fill="#E2D6D6"/>
<path d="M81.5325 17.4325C80.9312 18.797 80.4192 20.1989 79.9996 21.6296C79.9589 21.7271 79.9587 21.8367 79.9989 21.9344C80.0392 22.0321 80.1166 22.1098 80.2142 22.1504C80.3117 22.191 80.4214 22.1912 80.5192 22.151C80.6169 22.1108 80.6947 22.0334 80.7353 21.9359C81.4342 20.5676 82.0436 19.1554 82.5595 17.7082C82.8201 17.0802 81.8084 16.8198 81.5478 17.4325H81.5325Z" fill="#E2D6D6"/>
<path d="M83.234 17.4632C82.9427 18.4435 82.7128 19.4085 82.4828 20.4042C82.4743 20.4803 82.4932 20.557 82.5362 20.6204C82.5792 20.6838 82.6435 20.7298 82.7174 20.7501C82.7913 20.7704 82.8701 20.7637 82.9395 20.7312C83.0089 20.6987 83.0644 20.6425 83.096 20.5727C83.4333 19.6077 83.7551 18.6579 84.0157 17.6776C84.0442 17.574 84.0303 17.4634 83.9771 17.37C83.9239 17.2767 83.8358 17.2082 83.7322 17.1798C83.6285 17.1513 83.5178 17.1652 83.4243 17.2184C83.3309 17.2715 83.2624 17.3596 83.234 17.4632Z" fill="#E2D6D6"/>
<path d="M90.7299 64.7337C90.8831 64.7337 90.8831 64.4733 90.7299 64.4733C90.7028 64.4827 90.6794 64.5003 90.6628 64.5236C90.6462 64.5469 90.6372 64.5749 90.6372 64.6035C90.6372 64.6321 90.6462 64.66 90.6628 64.6833C90.6794 64.7067 90.7028 64.7243 90.7299 64.7337Z" fill="#E2D6D6"/>
<path d="M90.7299 64.4426C90.5612 65.1932 90.7299 65.9744 90.6072 66.7403C90.4359 67.5176 90.2053 68.2806 89.9174 69.0226C89.8919 69.1254 89.9004 69.2337 89.9416 69.3312C89.9827 69.4288 90.0544 69.5104 90.1459 69.5638C90.2373 69.6173 90.3436 69.6397 90.4489 69.6278C90.5542 69.6158 90.6527 69.5701 90.7299 69.4975C91.323 68.7834 91.6858 67.9065 91.7707 66.9824C91.8555 66.0583 91.6583 65.1301 91.2051 64.3201C91.1713 64.2823 91.1278 64.2544 91.0793 64.2397C91.0308 64.2249 90.9791 64.2238 90.93 64.2365C90.8809 64.2492 90.8363 64.2751 90.801 64.3115C90.7657 64.3478 90.7411 64.3932 90.7299 64.4426Z" fill="#E2D6D6"/>
<path d="M91.7876 64.1516C91.9314 65.4501 92.1514 66.739 92.4467 68.0117C92.4827 68.1058 92.5496 68.1849 92.6365 68.2361C92.7234 68.2872 92.8251 68.3073 92.9249 68.293C93.0247 68.2788 93.1167 68.2311 93.1858 68.1577C93.2549 68.0843 93.297 67.9896 93.3051 67.8891C93.2644 66.5864 93.1467 65.2872 92.9526 63.9984C92.8606 63.3397 91.7109 63.4929 91.7876 64.1516Z" fill="#E2D6D6"/>
</svg>
