<svg width="80" height="80" viewBox="0 0 80 80" fill="none" xmlns="http://www.w3.org/2000/svg">
<g clip-path="url(#clip0_495_1088)">
<rect width="80" height="80" rx="15" fill="white"/>
<rect width="80" height="80" rx="8" fill="#1A1919"/>
<path d="M27.3188 63.8V63H30.4488V63.8H27.3188ZM27.3188 66.6V65.8H30.3488V66.6H27.3188ZM26.8488 63H27.6988V70H26.8488V63ZM31.8488 63H32.6988V70H31.8488V63ZM37.55 67.25V66.45H40.8C40.8 66.9367 40.7267 67.4 40.58 67.84C40.4333 68.2733 40.2167 68.66 39.93 69C39.6433 69.34 39.29 69.61 38.87 69.81C38.4567 70.0033 37.9833 70.1 37.45 70.1C36.9433 70.1 36.4733 70.0133 36.04 69.84C35.6067 69.66 35.23 69.41 34.91 69.09C34.59 68.7633 34.34 68.38 34.16 67.94C33.9867 67.5 33.9 67.02 33.9 66.5C33.9 65.98 33.9867 65.5 34.16 65.06C34.34 64.62 34.59 64.24 34.91 63.92C35.23 63.5933 35.6067 63.3433 36.04 63.17C36.4733 62.99 36.9433 62.9 37.45 62.9C37.8833 62.9 38.28 62.9567 38.64 63.07C39.0067 63.1833 39.3333 63.35 39.62 63.57C39.9133 63.79 40.16 64.0633 40.36 64.39L39.76 64.94C39.54 64.5667 39.2333 64.2767 38.84 64.07C38.4467 63.8567 37.9833 63.75 37.45 63.75C36.9567 63.75 36.51 63.8667 36.11 64.1C35.71 64.3333 35.39 64.6567 35.15 65.07C34.9167 65.4767 34.8 65.9533 34.8 66.5C34.8 67.04 34.9167 67.5167 35.15 67.93C35.39 68.3433 35.71 68.6667 36.11 68.9C36.51 69.1333 36.9567 69.25 37.45 69.25C37.7967 69.25 38.1067 69.2 38.38 69.1C38.66 68.9933 38.9 68.8467 39.1 68.66C39.3 68.4733 39.4633 68.26 39.59 68.02C39.7233 67.78 39.82 67.5233 39.88 67.25H37.55ZM43.0239 65.27L42.5039 70H41.6539L42.5039 62.65L45.3039 67.72L48.1039 62.65L48.9539 70H48.1039L47.5839 65.27L45.3039 69.35L43.0239 65.27ZM50.8196 67.9L51.1196 67.1H54.2196L54.5196 67.9H50.8196ZM52.6496 64.58L51.4696 67.36L51.3896 67.54L50.3496 70H49.3996L52.6496 62.65L55.8996 70H54.9496L53.9296 67.6L53.8496 67.4L52.6496 64.58Z" fill="#CB3A1A"/>
<path d="M16.7225 45.4H19.3505V58H16.7225V45.4ZM21.0065 58H18.3785V55.66H20.9165C21.4685 55.66 21.9905 55.588 22.4825 55.444C22.9745 55.288 23.4065 55.048 23.7785 54.724C24.1505 54.4 24.4385 53.992 24.6425 53.5C24.8585 52.996 24.9665 52.396 24.9665 51.7C24.9665 51.004 24.8585 50.41 24.6425 49.918C24.4385 49.414 24.1505 49 23.7785 48.676C23.4065 48.352 22.9745 48.118 22.4825 47.974C21.9905 47.818 21.4685 47.74 20.9165 47.74H18.3785V45.4H21.0065C22.3265 45.4 23.4785 45.658 24.4625 46.174C25.4585 46.69 26.2325 47.422 26.7845 48.37C27.3365 49.306 27.6125 50.416 27.6125 51.7C27.6125 52.984 27.3365 54.1 26.7845 55.048C26.2325 55.984 25.4585 56.71 24.4625 57.226C23.4785 57.742 22.3265 58 21.0065 58ZM33.2973 58.18C32.3973 58.18 31.6113 58 30.9393 57.64C30.2673 57.28 29.7453 56.782 29.3733 56.146C29.0133 55.498 28.8333 54.736 28.8333 53.86C28.8333 52.972 29.0133 52.21 29.3733 51.574C29.7453 50.926 30.2673 50.428 30.9393 50.08C31.6113 49.72 32.4033 49.54 33.3153 49.54C34.2273 49.54 35.0013 49.708 35.6373 50.044C36.2853 50.368 36.7773 50.848 37.1133 51.484C37.4493 52.108 37.6173 52.864 37.6173 53.752C37.6173 53.86 37.6113 53.974 37.5993 54.094C37.5993 54.214 37.5933 54.31 37.5813 54.382H30.1653V52.942H35.5473L34.9173 53.77C34.9653 53.698 35.0073 53.602 35.0433 53.482C35.0913 53.35 35.1153 53.242 35.1153 53.158C35.1153 52.75 35.0373 52.402 34.8813 52.114C34.7373 51.826 34.5273 51.598 34.2513 51.43C33.9753 51.262 33.6513 51.178 33.2793 51.178C32.8233 51.178 32.4393 51.28 32.1273 51.484C31.8273 51.676 31.5933 51.97 31.4253 52.366C31.2693 52.75 31.1853 53.23 31.1733 53.806C31.1733 54.358 31.2513 54.826 31.4073 55.21C31.5753 55.594 31.8213 55.888 32.1453 56.092C32.4693 56.296 32.8593 56.398 33.3153 56.398C33.8313 56.398 34.2693 56.302 34.6293 56.11C35.0013 55.906 35.3073 55.606 35.5473 55.21L37.5813 55.84C37.1493 56.62 36.5733 57.208 35.8533 57.604C35.1453 57.988 34.2933 58.18 33.2973 58.18ZM39.3756 43.96H41.7156V58H39.3756V43.96ZM43.9083 46.516C43.9083 46.132 44.0463 45.82 44.3223 45.58C44.5983 45.328 44.9283 45.202 45.3123 45.202C45.6963 45.202 46.0203 45.328 46.2843 45.58C46.5603 45.82 46.6983 46.132 46.6983 46.516C46.6983 46.888 46.5603 47.2 46.2843 47.452C46.0203 47.704 45.6963 47.83 45.3123 47.83C44.9283 47.83 44.5983 47.704 44.3223 47.452C44.0463 47.2 43.9083 46.888 43.9083 46.516ZM44.1603 49.72H46.4283V58H44.1603V49.72ZM49.317 55.138C49.665 55.462 49.989 55.726 50.289 55.93C50.589 56.122 50.871 56.266 51.135 56.362C51.411 56.458 51.669 56.506 51.909 56.506C52.221 56.506 52.461 56.44 52.629 56.308C52.797 56.164 52.881 55.972 52.881 55.732C52.881 55.516 52.809 55.336 52.665 55.192C52.533 55.036 52.335 54.898 52.071 54.778C51.807 54.658 51.471 54.532 51.063 54.4C50.679 54.256 50.307 54.088 49.947 53.896C49.587 53.692 49.287 53.428 49.047 53.104C48.819 52.768 48.705 52.342 48.705 51.826C48.705 51.334 48.837 50.92 49.101 50.584C49.365 50.236 49.719 49.978 50.163 49.81C50.619 49.63 51.123 49.54 51.675 49.54C52.143 49.54 52.581 49.6 52.989 49.72C53.397 49.84 53.775 50.002 54.123 50.206C54.471 50.398 54.777 50.626 55.041 50.89L54.015 52.33C53.715 52.006 53.355 51.742 52.935 51.538C52.527 51.334 52.125 51.232 51.729 51.232C51.465 51.232 51.255 51.286 51.099 51.394C50.955 51.49 50.883 51.64 50.883 51.844C50.883 52.024 50.955 52.186 51.099 52.33C51.255 52.462 51.471 52.582 51.747 52.69C52.035 52.798 52.359 52.93 52.719 53.086C53.163 53.254 53.571 53.446 53.943 53.662C54.327 53.866 54.633 54.124 54.861 54.436C55.089 54.748 55.203 55.156 55.203 55.66C55.203 56.488 54.933 57.136 54.393 57.604C53.853 58.06 53.109 58.288 52.161 58.288C51.573 58.288 51.033 58.21 50.541 58.054C50.061 57.898 49.623 57.694 49.227 57.442C48.843 57.178 48.495 56.896 48.183 56.596L49.317 55.138ZM59.1531 43.96V58H56.8131V43.96H59.1531ZM62.1591 52.96C62.1591 52.408 62.0511 51.988 61.8351 51.7C61.6311 51.412 61.2831 51.268 60.7911 51.268C60.4671 51.268 60.1791 51.34 59.9271 51.484C59.6751 51.616 59.4831 51.808 59.3511 52.06C59.2191 52.312 59.1531 52.612 59.1531 52.96H58.6851C58.6851 52.3 58.7931 51.706 59.0091 51.178C59.2371 50.65 59.5731 50.23 60.0171 49.918C60.4611 49.606 61.0071 49.45 61.6551 49.45C62.3031 49.45 62.8371 49.57 63.2571 49.81C63.6771 50.05 63.9891 50.41 64.1931 50.89C64.3971 51.358 64.4991 51.934 64.4991 52.618V58H62.1591V52.96Z" fill="white"/>
<path d="M32.4164 18.2378C32.399 18.2109 32.3921 18.1789 32.3972 18.1475C32.4022 18.1161 32.4187 18.0875 32.4437 18.067C32.4687 18.0465 32.5005 18.0354 32.5332 18.0358C32.566 18.0362 32.5974 18.0481 32.6219 18.0692C32.8622 18.3022 35.2711 20.7702 35.6505 21.1657C36.0298 21.5612 36.2164 21.6378 36.425 21.4355C36.6337 21.2331 36.3523 20.8805 36.2132 20.7181C36.0741 20.5556 33.3142 17.2936 33.1783 17.1372C33.0013 16.9257 32.9602 16.8521 33.0487 16.7693C33.1372 16.6865 33.2099 16.7233 33.4249 16.8981L37.1205 19.8382C37.2881 19.9731 37.6485 20.249 37.8571 20.0436C38.0658 19.8382 37.9899 19.6604 37.5821 19.2925C37.1743 18.9246 34.6294 16.5915 34.3891 16.3554C34.3623 16.3331 34.3457 16.3013 34.343 16.2671C34.3404 16.2329 34.3518 16.199 34.3749 16.173C34.3979 16.147 34.4307 16.1309 34.466 16.1283C34.5013 16.1257 34.5361 16.1368 34.563 16.1592C34.7779 16.3064 38.8213 18.8908 39.305 19.4182C40.2724 20.4575 39.305 21.7972 40.108 22.8365L39.2323 23.5754C38.1701 22.8764 36.8233 23.7624 35.7738 22.8427C35.2363 22.3675 32.5682 18.4494 32.4164 18.2378ZM47.1009 28.7229C46.5382 28.2569 43.8542 26.0158 42.0427 24.5105L41.0943 25.5774L45.3716 30.3968C46.1114 31.2338 47.1199 32.5429 48.2169 31.476C49.3139 30.4091 47.9608 29.4433 47.1009 28.7229ZM47.9387 20.0282C48.5994 18.7835 48.8586 17.4009 48.2169 16.7754C47.5751 16.15 46.1493 16.4045 44.8658 17.0452C43.5823 17.686 42.7035 18.621 42.5454 19.6113C42.2956 21.1841 42.5233 21.8432 41.6444 22.5269C41.1512 22.9101 34.2943 28.7505 33.4407 29.474C32.5871 30.1975 32.4291 30.8781 33.036 31.4821C33.6683 32.0707 34.367 31.9144 35.1067 31.0927C35.8465 30.2711 41.8752 23.6152 42.2672 23.137C42.9722 22.2847 43.6519 22.5024 45.2768 22.2602C46.3169 22.113 47.2811 21.2546 47.9387 20.0282ZM32.448 29.4709L31.6039 28.9957V19.0165L31.9517 18.8203L31.8284 18.6394C31.8031 18.6029 31.7819 18.5639 31.7652 18.5229L31.2436 18.8295V29.2011L32.2425 29.7622C32.3043 29.6569 32.373 29.5555 32.448 29.4587V29.4709ZM40.4968 10L28 16.9992V31.0008L40.4968 38L53 31.0008V16.9992L40.4968 10ZM52.6396 30.7984L40.4968 37.5984L28.3604 30.7984V17.2016L40.4968 10.4016L52.6396 17.2016V30.7984ZM36.248 16.4137L40.4968 14.0315L44.654 16.3493C44.79 16.2849 44.9227 16.2266 45.0555 16.1715L40.4968 13.6299L35.916 16.196L36.248 16.4137ZM49.1558 18.8663L49.4055 19.0073V28.9743L48.7954 29.3176C48.8706 29.4087 48.9403 29.5039 49.004 29.6028L49.7659 29.1766V18.8019L49.2348 18.4953C49.2127 18.6364 49.1874 18.7559 49.1558 18.8755V18.8663ZM45.2389 31.3165L40.4968 33.9685L35.8433 31.3717L35.6694 31.5679L35.5999 31.6385L40.5032 34.3977L45.4886 31.6047C45.4033 31.4944 45.3211 31.4055 45.2389 31.3165Z" fill="#CB3A1A"/>
</g>
<defs>
<clipPath id="clip0_495_1088">
<rect width="80" height="80" rx="15" fill="white"/>
</clipPath>
</defs>
</svg>
