<svg width="166" height="50" viewBox="0 0 166 50" fill="none" xmlns="http://www.w3.org/2000/svg">
<path d="M68.9434 36.5935H60.833V13.4699H68.9434C75.7576 13.4699 80.81 18.1607 80.81 24.9987C80.81 31.8366 75.7576 36.5935 68.9434 36.5935ZM63.9575 16.2778V33.6535H68.9434C74.0956 33.6535 77.3863 29.9867 77.3863 24.9656C77.3863 19.9775 74.0956 16.2778 68.9434 16.2778H63.9575Z" fill="white"/>
<path d="M83.9682 36.5935V13.4699H98.9593V16.542H87.0927V23.1488H97.6629V26.2209H87.0927V33.5213H98.9593V36.5935H83.9682Z" fill="white"/>
<path d="M102.624 36.5935V13.4038H105.748V33.6865H115.687V36.5935H102.624Z" fill="white"/>
<path d="M119.332 36.5935V13.4038H122.456V36.5935H119.332Z" fill="white"/>
<path d="M125.783 29.7885L128.974 28.7975C128.874 31.9688 131.001 33.7195 134.757 33.8186C136.918 33.8847 140.375 33.3892 140.474 30.8456C140.641 25.7584 126.58 27.0467 126.846 19.2508C126.979 14.8573 131.466 13.2387 135.355 13.3378C140.474 13.4369 143.034 16.476 143.034 20.0106L139.81 20.8694C139.81 18.6562 137.882 16.1787 134.724 16.1456C132.497 16.1126 130.336 17.3348 130.27 19.3499C130.07 24.5031 144.264 23.0827 143.998 30.6144C143.832 35.14 138.613 36.7917 134.591 36.6595C129.572 36.4944 126.181 33.7856 125.783 29.7885Z" fill="white"/>
<path d="M147.684 36.5935V13.4699H150.776V23.6112H162.742V13.4699H165.833V36.5935H162.742V26.6834H150.776V36.5935H147.684Z" fill="white"/>
<path d="M7.80233 14.7104C7.77154 14.6624 7.75946 14.6051 7.76831 14.5491C7.77716 14.493 7.80635 14.442 7.85051 14.4054C7.89467 14.3688 7.95084 14.349 8.00868 14.3497C8.06653 14.3504 8.12216 14.3716 8.16536 14.4093C8.58982 14.8254 12.8456 19.2325 13.5158 19.9387C14.1861 20.6449 14.5156 20.7818 14.8842 20.4205C15.2528 20.0591 14.7557 19.4295 14.51 19.1394C14.2642 18.8492 9.38849 13.0242 9.14833 12.745C8.83557 12.3672 8.76296 12.2358 8.91934 12.088C9.07573 11.9402 9.20418 12.0059 9.58396 12.318L16.1129 17.5682C16.4089 17.809 17.0456 18.3018 17.4142 17.935C17.7828 17.5682 17.6488 17.2506 16.9283 16.5937C16.2078 15.9367 11.7119 11.7705 11.2874 11.349C11.24 11.309 11.2107 11.2523 11.206 11.1912C11.2013 11.1301 11.2215 11.0697 11.2623 11.0232C11.303 10.9768 11.3609 10.9481 11.4232 10.9434C11.4855 10.9388 11.5472 10.9586 11.5946 10.9986C11.9744 11.2614 19.1177 15.8765 19.9722 16.8181C21.6812 18.674 19.9722 21.0665 21.3908 22.9224L19.8437 24.2418C17.9671 22.9935 15.5879 24.5757 13.7337 22.9333C12.7842 22.0847 8.07041 15.0881 7.80233 14.7104ZM33.7449 33.4337C32.7508 32.6016 28.0091 28.5996 24.8088 25.9115L23.1333 27.8167L30.6899 36.4229C31.9968 37.9174 33.7785 40.2551 35.7165 38.3499C37.6545 36.4448 35.2641 34.7202 33.7449 33.4337ZM35.225 17.9076C36.3923 15.6849 36.8502 13.2158 35.7165 12.099C34.5827 10.9822 32.0638 11.4365 29.7963 12.5807C27.5288 13.725 25.9761 15.3947 25.6969 17.163C25.2556 19.9715 25.6578 21.1486 24.1051 22.3694C23.2339 23.0538 11.1199 33.483 9.61189 34.775C8.10392 36.067 7.82467 37.2824 8.897 38.3609C10.014 39.412 11.2483 39.1328 12.5552 37.6656C13.8621 36.1984 24.5128 24.3129 25.2054 23.4589C26.4509 21.9369 27.6516 22.3256 30.5224 21.8931C32.3598 21.6304 34.0633 20.0975 35.225 17.9076ZM7.85818 34.7695L6.36697 33.9209V16.101L6.98133 15.7506L6.76351 15.4276C6.71877 15.3624 6.68131 15.2926 6.65181 15.2195L5.73027 15.767V34.2877L7.49515 35.2896C7.6043 35.1016 7.72556 34.9205 7.85818 34.7476V34.7695ZM22.0777 0L0 12.4986V37.5014L22.0777 50L44.1667 37.5014V12.4986L22.0777 0ZM43.53 37.14L22.0777 49.2828L0.636697 37.14V12.86L22.0777 0.717178L43.53 12.86V37.14ZM14.5714 11.453L22.0777 7.19917L29.4221 11.338C29.6623 11.223 29.8968 11.119 30.1314 11.0205L22.0777 6.48199L13.985 11.0643L14.5714 11.453ZM37.3752 15.8327L37.8164 16.0845V33.8826L36.7385 34.4958C36.8714 34.6584 36.9944 34.8284 37.1071 35.0049L38.4532 34.2439V15.7177L37.5149 15.1703C37.4758 15.4221 37.4311 15.6356 37.3752 15.8491V15.8327ZM30.4553 38.0653L22.0777 42.8008L13.8565 38.1638L13.5494 38.5142L13.4265 38.6401L22.0889 43.5673L30.8966 38.5799C30.7458 38.3828 30.6005 38.224 30.4553 38.0653Z" fill="white"/>
</svg>
