<svg width="107" height="23" viewBox="0 0 107 23" fill="none" xmlns="http://www.w3.org/2000/svg">
<path d="M0 22.4121V0.439453H7.77832C10.4053 0.439453 12.6904 0.893555 14.6338 1.80176C16.5869 2.70996 18.1006 3.98926 19.1748 5.63965C20.2588 7.28027 20.8008 9.20898 20.8008 11.4258C20.8008 13.6328 20.2588 15.5615 19.1748 17.2119C18.1006 18.8623 16.5869 20.1416 14.6338 21.0498C12.6904 21.958 10.4053 22.4121 7.77832 22.4121H0ZM5.80078 17.3584H7.96875C9.45312 17.3584 10.708 17.1289 11.7334 16.6699C12.7588 16.2109 13.5352 15.542 14.0625 14.6631C14.5996 13.7744 14.8682 12.6953 14.8682 11.4258C14.8682 10.1465 14.5996 9.06738 14.0625 8.18848C13.5352 7.30957 12.7588 6.64062 11.7334 6.18164C10.708 5.72266 9.45312 5.49316 7.96875 5.49316H5.80078V17.3584Z" fill="white"/>
<path d="M23.7445 22.4121V0.439453H38.393V5.49316H29.5453V8.8916H37.807V13.9453H29.5453V17.3584H38.5395V22.4121H23.7445Z" fill="white"/>
<path d="M56.8641 22.4121H41.9227V0.439453H47.7234V17.3584H56.8641V22.4121Z" fill="white"/>
<path d="M65.0227 0.439453V22.4121H59.2219V0.439453H65.0227Z" fill="white"/>
<path d="M67.527 19.8926L70.2516 15.4688C70.9645 16.0254 71.6285 16.4795 72.2438 16.8311C72.8688 17.1826 73.4742 17.4414 74.0602 17.6074C74.6559 17.7637 75.2613 17.8418 75.8766 17.8418C76.482 17.8418 76.9996 17.7734 77.4293 17.6367C77.859 17.4902 78.1861 17.2852 78.4107 17.0215C78.6451 16.748 78.7623 16.4258 78.7623 16.0547C78.7623 15.5859 78.5963 15.1855 78.2643 14.8535C77.9322 14.5215 77.4879 14.2236 76.9313 13.96C76.3844 13.6963 75.7838 13.4326 75.1295 13.1689C74.4264 12.8857 73.7086 12.5732 72.9762 12.2314C72.2438 11.8799 71.5699 11.4551 70.9547 10.957C70.3395 10.459 69.8414 9.85352 69.4605 9.14062C69.0797 8.41797 68.8893 7.53906 68.8893 6.50391C68.8893 5.13672 69.2311 3.96973 69.9146 3.00293C70.608 2.02637 71.5504 1.28418 72.7418 0.776367C73.943 0.258789 75.3004 0 76.8141 0C77.9176 0 79.0846 0.146484 80.315 0.439453C81.5455 0.732422 82.7906 1.19141 84.0504 1.81641L81.7945 6.47461C81.0914 6.04492 80.3199 5.70312 79.4801 5.44922C78.65 5.18555 77.8883 5.05371 77.1949 5.05371C76.7164 5.05371 76.2965 5.11719 75.9352 5.24414C75.5836 5.37109 75.3102 5.55664 75.1148 5.80078C74.9195 6.03516 74.8219 6.31348 74.8219 6.63574C74.8219 7.06543 74.9879 7.44629 75.3199 7.77832C75.652 8.10059 76.0914 8.39844 76.6383 8.67188C77.1852 8.94531 77.7809 9.22363 78.4254 9.50684C79.1285 9.80957 79.8463 10.1465 80.5787 10.5176C81.3209 10.8887 81.9996 11.3281 82.6148 11.8359C83.2398 12.3438 83.7428 12.9541 84.1236 13.667C84.5045 14.3701 84.6949 15.2148 84.6949 16.2012C84.6949 17.5195 84.3336 18.6816 83.6109 19.6875C82.898 20.6836 81.8971 21.46 80.608 22.0166C79.3287 22.5732 77.8395 22.8516 76.1402 22.8516C74.5582 22.8516 73.0348 22.5977 71.5699 22.0898C70.1051 21.582 68.7574 20.8496 67.527 19.8926Z" fill="white"/>
<path d="M93.293 22.4121H87.4922V0.439453H93.293V9.08203H100.954V0.439453H106.755V22.4121H100.954V14.1357H93.293V22.4121Z" fill="white"/>
</svg>
