<svg width="166" height="50" viewBox="0 0 166 50" fill="none" xmlns="http://www.w3.org/2000/svg">
<path d="M68.9439 36.5932H60.8335V13.4696H68.9439C75.758 13.4696 80.8104 18.1604 80.8104 24.9984C80.8104 31.8364 75.758 36.5932 68.9439 36.5932ZM63.958 16.2775V33.6532H68.9439C74.0961 33.6532 77.3868 29.9865 77.3868 24.9654C77.3868 19.9773 74.0961 16.2775 68.9439 16.2775H63.958Z" fill="white"/>
<path d="M83.9687 36.5932V13.4696H98.9597V16.5418H87.0932V23.1485H97.6634V26.2207H87.0932V33.5211H98.9597V36.5932H83.9687Z" fill="white"/>
<path d="M102.624 36.5932V13.4036H105.749V33.6863H115.688V36.5932H102.624Z" fill="white"/>
<path d="M119.332 36.5932V13.4036H122.457V36.5932H119.332Z" fill="white"/>
<path d="M125.783 29.7883L128.974 28.7973C128.874 31.9685 131.002 33.7193 134.758 33.8184C136.918 33.8845 140.375 33.389 140.475 30.8454C140.641 25.7582 126.581 27.0465 126.847 19.2505C126.98 14.8571 131.467 13.2384 135.356 13.3375C140.475 13.4366 143.034 16.4757 143.034 20.0103L139.81 20.8692C139.81 18.6559 137.882 16.1784 134.724 16.1454C132.497 16.1123 130.337 17.3346 130.27 19.3496C130.071 24.5029 144.264 23.0825 143.998 30.6141C143.832 35.1397 138.613 36.7914 134.591 36.6593C129.572 36.4941 126.182 33.7854 125.783 29.7883Z" fill="white"/>
<path d="M147.685 36.5932V13.4696H150.776V23.611H162.742V13.4696H165.833V36.5932H162.742V26.6831H150.776V36.5932H147.685Z" fill="white"/>
<path d="M7.80233 14.7104C7.77154 14.6624 7.75946 14.6051 7.76831 14.5491C7.77716 14.493 7.80635 14.442 7.85051 14.4054C7.89467 14.3688 7.95084 14.349 8.00868 14.3497C8.06653 14.3504 8.12216 14.3716 8.16536 14.4093C8.58982 14.8254 12.8456 19.2325 13.5158 19.9387C14.1861 20.6449 14.5156 20.7818 14.8842 20.4205C15.2528 20.0591 14.7557 19.4295 14.51 19.1394C14.2642 18.8492 9.38849 13.0242 9.14833 12.745C8.83557 12.3672 8.76296 12.2358 8.91934 12.088C9.07573 11.9402 9.20418 12.0059 9.58396 12.318L16.1129 17.5682C16.4089 17.809 17.0456 18.3018 17.4142 17.935C17.7828 17.5682 17.6488 17.2506 16.9283 16.5937C16.2078 15.9367 11.7119 11.7705 11.2874 11.349C11.24 11.309 11.2107 11.2523 11.206 11.1912C11.2013 11.1301 11.2215 11.0697 11.2623 11.0232C11.303 10.9768 11.3609 10.9481 11.4232 10.9434C11.4855 10.9388 11.5472 10.9586 11.5946 10.9986C11.9744 11.2614 19.1177 15.8765 19.9722 16.8181C21.6812 18.674 19.9722 21.0665 21.3908 22.9224L19.8437 24.2418C17.9671 22.9935 15.5879 24.5757 13.7337 22.9333C12.7842 22.0847 8.07041 15.0881 7.80233 14.7104ZM33.7449 33.4337C32.7508 32.6016 28.0091 28.5996 24.8088 25.9115L23.1333 27.8167L30.6899 36.4229C31.9968 37.9174 33.7785 40.2551 35.7165 38.3499C37.6545 36.4448 35.2641 34.7202 33.7449 33.4337ZM35.225 17.9076C36.3923 15.6849 36.8502 13.2158 35.7165 12.099C34.5827 10.9822 32.0638 11.4365 29.7963 12.5807C27.5288 13.725 25.9761 15.3947 25.6969 17.163C25.2556 19.9715 25.6578 21.1486 24.1051 22.3694C23.2339 23.0538 11.1199 33.483 9.61189 34.775C8.10392 36.067 7.82467 37.2824 8.897 38.3609C10.014 39.412 11.2483 39.1328 12.5552 37.6656C13.8621 36.1984 24.5128 24.3129 25.2054 23.4589C26.4509 21.9369 27.6516 22.3256 30.5224 21.8931C32.3598 21.6304 34.0633 20.0975 35.225 17.9076ZM7.85818 34.7695L6.36697 33.9209V16.101L6.98133 15.7506L6.76351 15.4276C6.71877 15.3624 6.68131 15.2926 6.65181 15.2195L5.73027 15.767V34.2877L7.49515 35.2896C7.6043 35.1016 7.72556 34.9205 7.85818 34.7476V34.7695ZM22.0777 0L0 12.4986V37.5014L22.0777 50L44.1667 37.5014V12.4986L22.0777 0ZM43.53 37.14L22.0777 49.2828L0.636697 37.14V12.86L22.0777 0.717178L43.53 12.86V37.14ZM14.5714 11.453L22.0777 7.19917L29.4221 11.338C29.6623 11.223 29.8968 11.119 30.1314 11.0205L22.0777 6.48199L13.985 11.0643L14.5714 11.453ZM37.3752 15.8327L37.8164 16.0845V33.8826L36.7385 34.4958C36.8714 34.6584 36.9944 34.8284 37.1071 35.0049L38.4532 34.2439V15.7177L37.5149 15.1703C37.4758 15.4221 37.4311 15.6356 37.3752 15.8491V15.8327ZM30.4553 38.0653L22.0777 42.8008L13.8565 38.1638L13.5494 38.5142L13.4265 38.6401L22.0889 43.5673L30.8966 38.5799C30.7458 38.3828 30.6005 38.224 30.4553 38.0653Z" fill="white"/>
</svg>
