<svg width="20" height="20" viewBox="0 0 20 20" fill="none" xmlns="http://www.w3.org/2000/svg">
    <path d="M8.9814 0.773837C9.30201 -0.257945 10.698 -0.257946 11.0186 0.773836L12.645 6.00801C12.7884 6.46944 13.1996 6.78185 13.6636 6.78185H18.9269C19.9644 6.78185 20.3958 8.1701 19.5565 8.80778L15.2984 12.0427C14.923 12.3279 14.7659 12.8333 14.9093 13.2948L16.5357 18.5289C16.8564 19.5607 15.727 20.4187 14.8876 19.781L10.6295 16.5461C10.2542 16.261 9.74585 16.261 9.37047 16.5461L5.11238 19.781C4.27301 20.4187 3.14364 19.5607 3.46426 18.5289L5.0907 13.2948C5.23408 12.8333 5.07701 12.3279 4.70163 12.0427L0.443543 8.80778C-0.395829 8.1701 0.0355505 6.78185 1.07307 6.78185H6.33636C6.80035 6.78185 7.21157 6.46944 7.35496 6.00801L8.9814 0.773837Z" fill="#CB3A1A"/>
</svg>