<svg width="16" height="14" viewBox="0 0 16 14" fill="none" xmlns="http://www.w3.org/2000/svg">
<path d="M16 9.5V13.2188C15.9583 13.6979 15.7083 13.9583 15.25 14C14.7917 13.9583 14.5417 13.7188 14.5 13.2812V9.5625C14.4792 8.64583 14.1667 7.88542 13.5625 7.28125C12.9375 6.67708 12.1667 6.36458 11.25 6.34375H2.78125L6.75 9.78125C7.0625 10.0938 7.08333 10.4375 6.8125 10.8125C6.66667 10.9167 6.47917 10.9792 6.25 11C6.0625 11 5.89583 10.9375 5.75 10.8125L0.25 6.09375C0.0833333 5.90625 0 5.70833 0 5.5C0 5.27083 0.0833333 5.08333 0.25 4.9375L5.75 0.21875C5.91667 0.0729167 6.09375 0.0104167 6.28125 0.03125C6.48958 0.0520833 6.66667 0.135417 6.8125 0.28125C7.08333 0.65625 7.0625 1.01042 6.75 1.34375L2.78125 4.75H11.25C12.5833 4.79167 13.6979 5.26042 14.5938 6.15625C15.4896 7.05208 15.9583 8.16667 16 9.5Z" fill="#CB3A1A"/>
</svg>
