<svg width="32" height="29" viewBox="0 0 32 29" fill="none" xmlns="http://www.w3.org/2000/svg">
<path d="M23.1998 12.2105C24.7287 12.2104 26.2311 12.5903 27.5592 13.3127C28.8873 14.0352 29.9952 15.0753 30.7737 16.3305C31.5522 17.5857 31.9744 19.0128 31.9989 20.4711C32.0233 21.9294 31.6491 23.3686 30.913 24.6469L31.5306 26.6479C31.6122 26.9124 31.6176 27.1929 31.5463 27.4601C31.475 27.7272 31.3295 27.9711 31.1251 28.166C30.9208 28.3609 30.6652 28.4997 30.3852 28.5678C30.1052 28.6359 29.8111 28.6307 29.5339 28.5528L27.438 27.9636C26.262 28.5797 24.9539 28.931 23.6137 28.9908C22.2735 29.0506 20.9367 28.8173 19.7056 28.3086C18.4744 27.7999 17.3815 27.0294 16.5104 26.056C15.6392 25.0826 15.0129 23.932 14.6794 22.6922C14.3459 21.4525 14.3139 20.1564 14.5859 18.903C14.858 17.6497 15.4269 16.4723 16.2491 15.4608C17.0712 14.4494 18.125 13.6307 19.3297 13.0674C20.5344 12.504 21.8582 12.2109 23.1998 12.2105ZM14.4003 4.48455e-08C17.584 0.000416969 20.6779 1.00697 23.1985 2.86237C25.7191 4.71777 27.5244 7.3175 28.3324 10.2553C25.9109 9.16036 23.1749 8.87017 20.5605 9.43101C17.946 9.99185 15.6036 11.3714 13.9066 13.3499C12.2095 15.3283 11.2555 17.7918 11.1965 20.3476C11.1375 22.9034 11.977 25.4045 13.5812 27.4523C11.2659 27.3294 9.01657 26.672 7.02636 25.5368L2.78661 26.7273C2.50851 26.8056 2.21345 26.8109 1.93247 26.7426C1.6515 26.6744 1.395 26.5351 1.18998 26.3396C0.984963 26.144 0.839008 25.8993 0.767478 25.6312C0.695948 25.3632 0.70149 25.0817 0.783519 24.8164L2.03145 20.7716C0.728214 18.6864 0.0275448 16.3089 0.000795678 13.8812C-0.0259534 11.4536 0.622173 9.06256 1.87917 6.95163C3.13617 4.8407 4.95713 3.08528 7.15661 1.86415C9.3561 0.643024 11.8555 -0.000196098 14.4003 4.48455e-08Z" fill="#CB3A1A"/>
</svg>
