<svg width="18" height="17" viewBox="0 0 18 17" fill="none" xmlns="http://www.w3.org/2000/svg">
<path d="M10.2847 6.39545C11.0034 6.9892 11.4097 7.83295 11.4097 8.70795C11.4097 9.6142 11.0034 10.4579 10.2847 11.0517C10.1597 11.1454 9.97217 11.2079 9.81592 11.2079C9.59717 11.2079 9.37842 11.1142 9.22217 10.9267C8.97217 10.6142 9.00342 10.1454 9.34717 9.8642C9.69092 9.58295 9.90967 9.1767 9.90967 8.70795C9.90967 8.27045 9.69092 7.8642 9.34717 7.58295C9.00342 7.3017 8.97217 6.83295 9.22217 6.52045C9.50342 6.20795 9.97217 6.14545 10.2847 6.39545ZM12.1909 4.08295C13.5972 5.2392 14.4097 6.89545 14.4097 8.70795C14.4097 10.5204 13.5972 12.2079 12.1909 13.3329C12.0347 13.4267 11.8784 13.4892 11.6909 13.4892C11.4722 13.4892 11.2847 13.3954 11.1284 13.2079C10.8472 12.8954 10.9097 12.4267 11.2222 12.1767C12.2847 11.3017 12.8784 10.0204 12.8784 8.70795C12.8784 7.3642 12.2847 6.1142 11.2222 5.2392C10.9097 4.95795 10.8472 4.4892 11.1284 4.1767C11.3784 3.8642 11.8472 3.8017 12.1909 4.08295ZM14.0972 1.77045C16.1909 3.4892 17.4097 5.95795 17.4097 8.70795C17.4097 11.4267 16.1909 13.9579 14.0972 15.6454C13.9409 15.7704 13.7847 15.8329 13.6284 15.8329C13.4097 15.8329 13.1909 15.7392 13.0347 15.5517C12.7847 15.2392 12.8159 14.7704 13.1284 14.4892C14.8784 13.0517 15.9097 10.9267 15.9097 8.70795C15.9097 6.45795 14.8784 4.3642 13.1284 2.9267C12.8159 2.64545 12.7847 2.1767 13.0347 1.8642C13.3159 1.5517 13.7847 1.4892 14.0972 1.77045ZM6.12842 6.1767L4.47217 6.02045C3.84717 7.77045 3.84717 9.6767 4.47217 11.4267L6.12842 11.2704C6.44092 11.2392 6.78467 11.4267 6.90967 11.7392L7.94092 14.3642C8.09717 14.7079 7.94092 15.1142 7.65967 15.3017L5.53467 16.6142C5.25342 16.8017 4.84717 16.7392 4.59717 16.4892C0.315918 12.2079 0.315918 5.2392 4.59717 0.957947C4.84717 0.707947 5.25342 0.645447 5.53467 0.832947L7.65967 2.14545C7.94092 2.33295 8.09717 2.7392 7.94092 3.08295L6.90967 5.70795C6.78467 6.02045 6.44092 6.20795 6.12842 6.1767Z" fill="white"/>
</svg>
