<svg width="19" height="19" viewBox="0 0 19 19" fill="none" xmlns="http://www.w3.org/2000/svg">
<path d="M11.3429 7.58015L8.52182 10.4009M17.2559 1.02752C17.3451 0.996729 17.4412 0.991662 17.5332 1.0129C17.6251 1.03413 17.7093 1.08081 17.776 1.1476C17.8427 1.21439 17.8892 1.29859 17.9103 1.39058C17.9314 1.48258 17.9262 1.57866 17.8953 1.66783L12.3246 17.5863C12.2913 17.6815 12.2301 17.7644 12.1491 17.8244C12.068 17.8844 11.9708 17.9186 11.8701 17.9227C11.7693 17.9267 11.6696 17.9004 11.584 17.8471C11.4984 17.7939 11.4308 17.7161 11.3899 17.6239L8.3629 10.8146C8.31241 10.7011 8.22162 10.6103 8.10806 10.5598L1.29799 7.5322C1.20611 7.49118 1.12864 7.42356 1.0756 7.33807C1.02255 7.25257 0.996358 7.15314 1.00041 7.05262C1.00446 6.95209 1.03856 6.85509 1.09831 6.77414C1.15807 6.69319 1.24072 6.63202 1.3356 6.59852L17.2559 1.02752Z" stroke="white" stroke-linecap="round" stroke-linejoin="round"/>
</svg>
